<?xml version="1.0" encoding="UTF-8"?>
<svg width="256px" height="256px" viewBox="0 0 256 256" version="1.1" xmlns="http://www.w3.org/2000/svg" xmlns:xlink="http://www.w3.org/1999/xlink">
    <title>home/react-native-and-more</title>
    <g id="home/react-native-and-more" stroke="none" stroke-width="1" fill="none" fill-rule="evenodd">
        <path d="M192,17.3150247 C207.569575,26.2906394 211.132432,51.9667633 203.924667,84.2306251 C235.511848,94.1298129 256,110.048771 256,128 C256,145.951093 235.51216,161.869945 203.925389,171.769148 C211.133344,204.032573 207.57075,229.70842 192.001408,238.684163 C176.431829,247.660044 152.380448,237.902967 128.000557,215.538238 C103.62095,237.903275 79.5696935,247.660658 64,238.684975 C48.4304252,229.709361 44.8675685,204.033237 52.0753329,171.769374 C20.4881516,161.870188 0,145.951229 0,128 C0,110.048908 20.4878396,94.1300547 52.0746116,84.2308522 C44.8666556,51.9674268 48.4292499,26.2915801 63.998592,17.3158365 C79.5681713,8.33995604 103.619552,18.0970338 127.999444,40.4617618 C152.379051,18.0967246 176.430306,8.33934178 192,17.3150247 Z M60.5492239,175 C54.0287317,202.800171 56.3340907,224.359641 68.7817127,231.524316 C81.2294336,238.689049 101.110611,229.899516 122,210.369451 C113.743492,202.097406 105.528682,192.441137 97.6722272,181.63817 C84.3593695,180.256696 71.8634723,177.992426 60.5492239,175 Z M195.45058,175 C184.136242,177.992513 171.640218,180.256852 158.327211,181.638372 C150.470953,192.441388 142.256334,202.097722 134,210.369851 C154.889688,229.89977 174.771002,238.689115 187.218647,231.524173 C199.666094,224.359344 201.971243,202.799972 195.45058,175 Z M147,182 C140.796547,182.378276 134.452529,182.574096 127.999728,182.574096 C121.547117,182.574096 115.203281,182.378288 109,182 C115.254092,190.146761 121.643824,197.5254 128.000221,204 C134.35647,197.525384 140.746043,190.146749 147,182 Z M128,82 C119.246317,82 110.714002,82.3594011 102.500077,83.0414113 C97.7996737,89.7802809 93.2207889,96.9548871 88.8439482,104.5 C84.4670417,112.045222 80.5135598,119.57934 77,127.000326 C80.5136561,134.421262 84.4672335,141.955329 88.8442353,149.500494 C93.2211104,157.045445 97.8000188,164.219897 102.500439,170.958624 C110.714249,171.640609 119.246444,172 128,172 C136.753683,172 145.285998,171.640599 153.499923,170.958588 C158.200326,164.219718 162.779211,157.045112 167.156052,149.5 C171.532957,141.954777 175.48644,134.420659 179,126.999674 C175.486344,119.578737 171.532765,112.044671 167.155764,104.499505 C162.778888,96.9545553 158.19998,89.7801028 153.499561,83.0413751 C145.285751,82.3593903 136.753556,82 128,82 Z M72.5111906,139 C68.6087537,148.273512 65.4271273,157.283466 63,165.820699 C71.6124245,167.988863 81.0117969,169.740449 91,171 C87.6593825,165.96231 84.4059131,160.716524 81.2664453,155.282829 C78.1267947,149.848817 75.2070189,144.410093 72.5111906,139 Z M183.488427,139 C180.792706,144.410014 177.873042,149.84866 174.733506,155.282597 C171.594062,160.716375 168.340608,165.96224 165,171 C174.988222,169.740446 184.387598,167.98885 193,165.820648 C190.572776,157.283439 187.391021,148.273498 183.488427,139 Z M54.1559318,92 C26.6422425,100.300877 9,113.117922 9,127.499901 C9,141.881994 26.6425219,154.699129 54.1565855,163 C57.2258242,151.694089 61.5230263,139.729659 67,127.500313 C61.5227561,115.270737 57.2253299,103.306097 54.1559318,92 Z M201.843415,92 C198.774176,103.305911 194.476974,115.270341 189,127.499687 C194.477244,139.729263 198.77467,151.693902 201.844068,163 C229.357758,154.699123 247,141.882077 247,127.500098 C247,113.118006 229.357478,100.300871 201.843415,92 Z M129,106 C129.159201,106 129.318024,106.001617 129.476454,106.004837 C129.53197,106.005889 129.586985,106.00716 129.641942,106.008614 C129.729235,106.011176 129.816936,106.014073 129.904511,106.01746 C132.104747,106.099063 134.209497,106.478346 136.219107,107.154847 C136.259637,107.169139 136.300285,107.182692 136.340882,107.196355 C136.371059,107.206603 136.40105,107.216972 136.43102,107.227408 C142.928746,109.443874 148.117389,114.487902 150.530305,120.892441 C151.412643,123.183817 151.897429,125.602767 151.985381,128.148872 C151.986567,128.204552 151.988373,128.259576 151.989984,128.314649 C151.996841,128.541615 152,128.770301 152,129 L151.995444,128.537556 C151.998476,128.691339 152,128.845491 152,129 C152,129.150822 151.998548,129.301305 151.995658,129.451435 C151.994934,129.504968 151.993798,129.557966 151.992492,129.610909 C151.989969,129.690538 151.987473,129.770532 151.984569,129.850423 C151.897429,132.397233 151.412643,134.816183 150.531021,137.107976 C148.189205,143.32148 143.235147,148.254669 137.007536,150.567722 C134.763508,151.421206 132.389447,151.893252 129.885812,151.983858 C129.80855,151.986181 129.73152,151.988715 129.654395,151.99087 C129.433554,151.997043 129.211415,152 128.988271,152 L129.462444,151.995444 C129.308661,151.998476 129.154509,152 129,152 L128.988271,152 C128.968219,152 128.948174,151.999976 128.928137,151.999928 L129,152 C128.853535,152 128.70739,151.998631 128.561577,151.995905 C128.464449,151.994668 128.367756,151.992432 128.271246,151.989627 C128.248708,151.987973 128.225696,151.987223 128.202694,151.986439 C125.335846,151.896041 122.630535,151.301732 120.086181,150.204592 L120.533592,150.391646 C114.521845,148.010319 109.753001,143.168077 107.469695,137.107559 C106.587357,134.816183 106.102571,132.397233 106.014619,129.851128 C106.012527,129.770532 106.010031,129.690538 106.007944,129.610441 C106.002503,129.408075 106,129.204438 106,129 L106.004636,129.466447 C106.00155,129.311336 106,129.155849 106,129 C106,128.844151 106.00155,128.688664 106.004636,128.533553 C106.005756,128.459836 106.007455,128.386837 106.009478,128.313941 C106.011627,128.259576 106.013433,128.204552 106.015431,128.149577 C106.102571,125.602767 106.587357,123.183817 107.468979,120.892024 C109.753001,114.831923 114.521845,109.989681 120.533592,107.608354 C122.946547,106.630675 125.502963,106.098625 128.202112,106.012481 C128.225696,106.012777 128.248708,106.012027 128.271727,106.011311 C128.509148,106.003458 128.748156,106 128.988271,106 L128.543561,106.004439 C128.695351,106.001484 128.847502,106 129,106 Z M118.024,126 C117.176,126 116.46,126.288 115.876,126.864 C115.292,127.44 115,128.144 115,128.976 C115,129.808 115.292,130.52 115.876,131.112 C116.46,131.704 117.176,132 118.024,132 C118.84,132 119.54,131.704 120.124,131.112 C120.708,130.52 121,129.808 121,128.976 C121,128.144 120.704,127.44 120.112,126.864 C119.52,126.288 118.824,126 118.024,126 Z M129,126 C128.168,126 127.46,126.288 126.876,126.864 C126.292,127.44 126,128.144 126,128.976 C126,129.808 126.292,130.52 126.876,131.112 C127.46,131.704 128.168,132 129,132 C129.832,132 130.54,131.704 131.124,131.112 C131.708,130.52 132,129.808 132,128.976 C132,128.144 131.708,127.44 131.124,126.864 C130.54,126.288 129.832,126 129,126 Z M140.012048,126 C139.160643,126 138.445783,126.288 137.86747,126.864 C137.289157,127.44 137,128.144 137,128.976 C137,129.808 137.289157,130.52 137.86747,131.112 C138.445783,131.704 139.160643,132 140.012048,132 C140.831325,132 141.534137,131.704 142.120482,131.112 C142.706827,130.52 143,129.808 143,128.976 C143,128.144 142.706827,127.44 142.120482,126.864 C141.534137,126.288 140.831325,126 140.012048,126 Z M91,85 C81.0117785,86.2595548 71.6124012,88.0111499 63,90.1793522 C65.4272232,98.7165617 68.6089789,107.726503 72.5115738,117 C75.2072939,111.589987 78.1269579,106.151341 81.2664939,100.717404 C84.4059385,95.283626 87.6593919,90.03776 91,85 Z M165,85 C168.340618,90.0376889 171.594087,95.2834762 174.733555,100.717171 C177.873205,106.151183 180.792982,111.589906 183.488809,117 C187.391246,107.726488 190.572873,98.7165326 193,90.1793007 C184.387576,88.0111369 174.988203,86.259551 165,85 Z M134,46.630549 C142.256508,54.9025939 150.471319,64.5588626 158.327773,75.3618292 C171.640631,76.7433038 184.136528,79.0075742 195.450776,82 C201.971268,54.1998294 199.66591,32.6403594 187.218287,25.4756837 C174.770566,18.3109512 154.889389,27.1004838 134,46.630549 Z M68.7813537,25.4758269 C56.3339062,32.6406558 54.0287569,54.2000278 60.54942,82 C71.8637583,79.0074865 84.3597818,76.7431471 97.6727889,75.3616281 C105.529047,64.5586115 113.743666,54.9022771 122,46.6301495 C101.110312,27.1002295 81.228998,18.3108843 68.7813537,25.4758269 Z M127.999779,53 C121.64353,59.4746158 115.253957,66.853252 109,75 C115.203453,74.6217243 121.547472,74.425905 128.000272,74.425905 C134.452884,74.425905 140.796719,74.6217128 147,75 C140.745908,66.8532388 134.356176,59.4746003 127.999779,53 Z" id="react-native-and-more" fill="#60D9FB" fill-rule="nonzero"></path>
    </g>
</svg>