<?xml version="1.0" encoding="UTF-8"?>
<svg width="256px" height="256px" viewBox="0 0 256 256" version="1.1" xmlns="http://www.w3.org/2000/svg" xmlns:xlink="http://www.w3.org/1999/xlink">
    <title>home/rescript</title>
    <g id="home/rescript" stroke="none" stroke-width="1" fill="none" fill-rule="evenodd">
        <path d="M127.934727,256 C145.601904,256 162.137685,252.669388 177.54207,246.008163 C192.946456,239.346939 206.54496,230.138776 218.337583,218.383673 C230.130206,206.628571 239.355431,193.023129 246.013259,177.567347 C252.671086,162.111565 256,145.589116 256,128 C256,110.410884 252.671086,93.8884354 246.013259,78.4326531 C239.355431,62.9768707 230.130206,49.3714286 218.337583,37.6163265 C206.54496,25.8612245 192.924698,16.6530612 177.476798,9.99183673 C162.028897,3.33061224 145.514873,0 127.934727,0 C110.354581,0 93.8405575,3.33061224 78.3926568,9.99183673 C62.9447561,16.6530612 49.3462519,25.8612245 37.5971443,37.6163265 C25.8480367,49.3714286 16.6445691,62.9768707 9.98674146,78.4326531 C3.32891382,93.8884354 0,110.410884 0,128 C0,145.589116 3.32891382,162.111565 9.98674146,177.567347 C16.6445691,193.023129 25.8480367,206.628571 37.5971443,218.383673 C49.3462519,230.138776 62.9447561,239.346939 78.3926568,246.008163 C93.8405575,252.669388 110.354581,256 127.934727,256 Z M127.434494,246 C111.101714,246 95.7733554,242.943062 81.4494196,236.829187 C67.1254837,230.715312 54.526534,222.221393 43.6525705,211.34743 C32.778607,200.473466 24.2846877,187.874516 18.1708126,173.55058 C12.0569375,159.226645 9,143.898286 9,127.565506 C9,111.232725 12.0569375,95.9043671 18.1708126,81.5804312 C24.2846877,67.2564953 32.778607,54.6357103 43.6525705,43.7180763 C54.526534,32.8004422 67.1254837,24.2846877 81.4494196,18.1708126 C95.7733554,12.0569375 111.101714,9 127.434494,9 C143.854616,9 159.204809,12.0569375 173.485075,18.1708126 C187.76534,24.2846877 200.36429,32.8004422 211.281924,43.7180763 C222.199558,54.6357103 230.715312,67.2564953 236.829187,81.5804312 C242.943062,95.9043671 246,111.232725 246,127.565506 C246,143.898286 242.943062,159.226645 236.829187,173.55058 C230.715312,187.874516 222.221393,200.473466 211.34743,211.34743 C200.473466,222.221393 187.874516,230.715312 173.55058,236.829187 C159.226645,242.943062 143.854616,246 127.434494,246 Z M99.2105263,218 C100.768421,218.041905 102.196491,217.235646 103.494737,215.579547 L179.312281,119.874413 C180.437427,118.218313 181,116.823703 181,115.690582 C181,114.557461 180.610526,113.664039 179.831579,113.010315 C179.052632,112.356592 178.05731,112.02973 176.845614,112.02973 L129.849123,112.02973 L155.424561,42.8657739 C156.203509,40.8610216 156.181871,39.2267126 155.359649,37.962847 C154.537427,36.6989814 153.347368,36.0452578 151.789474,36 C150.231579,35.9580946 148.803509,36.7643537 147.505263,38.4204535 L71.6877193,134.256332 C70.5625731,135.825268 70,137.176297 70,138.309418 C70,139.442539 70.3894737,140.335961 71.1684211,140.989685 C71.9473684,141.643408 72.9426901,141.97027 74.154386,141.97027 L121.150877,141.97027 L95.5754386,211.134226 C94.7964912,213.226142 94.8181287,214.882241 95.6403509,216.102525 C96.4625731,217.322809 97.6526316,217.954742 99.2105263,218 Z" id="􀋧" fill="#00C7FF" fill-rule="nonzero"></path>
    </g>
</svg>