<?xml version="1.0" encoding="UTF-8"?>
<svg width="256px" height="256px" viewBox="0 0 256 256" version="1.1" xmlns="http://www.w3.org/2000/svg" xmlns:xlink="http://www.w3.org/1999/xlink">
    <title>home/safe</title>
    <g id="home/safe" stroke="none" stroke-width="1" fill="none" fill-rule="evenodd">
        <path d="M128,256 C129.418585,256 130.903666,255.670273 132.455243,255.010819 C134.00682,254.351365 135.40324,253.713893 136.644501,253.098403 C154.908781,242.283359 170.158568,232.941096 182.393862,225.071613 C194.629156,217.202129 204.381927,209.838228 211.652174,202.979907 C218.922421,196.121587 224.131287,188.867594 227.278772,181.217929 C230.426257,173.568264 232,164.511764 232,154.048429 L232,54.9984544 C232,50.1624592 231.468031,46.2716813 230.404092,43.3261206 C229.340153,40.3805598 227.522592,37.9625623 224.951407,36.0721278 C222.380222,34.1816933 218.83376,32.3572042 214.31202,30.5986605 C208.54902,28.4004809 202.409207,26.0484286 195.892583,23.5425039 C189.375959,21.0365791 182.770673,18.5086725 176.076726,15.9587841 C169.382779,13.4088958 162.777494,10.9249528 156.26087,8.50695518 C149.744246,6.08895758 143.604433,3.86879615 137.841432,1.84647089 C136.068201,1.31890778 134.405797,0.879271853 132.85422,0.527563112 C131.302643,0.175854371 129.684569,0 128,0 C126.315431,0 124.675192,0.175854371 123.079284,0.527563112 C121.483376,0.879271853 119.843137,1.31890778 118.158568,1.84647089 C112.395567,3.95672334 106.27792,6.24283016 99.8056266,8.70479134 C93.3333333,11.1667525 86.7058824,13.6506955 79.9232737,16.1566203 C73.140665,18.6625451 66.513214,21.1464881 60.0409207,23.6084493 C53.5686275,26.0704104 47.4509804,28.4004809 41.6879795,30.5986605 C37.1662404,32.269277 33.6197783,34.0717843 31.0485934,36.0061824 C28.4774084,37.9405805 26.6598465,40.3805598 25.5959079,43.3261206 C24.5319693,46.2716813 24,50.1624592 24,54.9984544 L24,154.048429 C24,164.511764 25.6180733,173.502318 28.8542199,181.020093 C32.0903666,188.537867 37.3657289,195.703933 44.6803069,202.51829 C51.9948849,209.332646 61.7476556,216.674566 73.9386189,224.544049 C86.1295823,232.413533 101.268542,241.93165 119.355499,253.098403 C120.59676,253.713893 121.99318,254.351365 123.544757,255.010819 C125.096334,255.670273 126.581415,256 128,256 Z" id="Path" fill="#0097C2" fill-rule="nonzero"></path>
        <path d="M159.638341,167.551532 C160.18297,167.132225 160.535377,166.5839 160.695562,165.906557 C160.855747,165.229214 160.759636,164.326091 160.407229,163.197186 L149.883072,131.071789 L177.178603,111.235324 C178.107676,110.557981 178.70837,109.896765 178.980684,109.251677 C179.252999,108.606589 179.293045,107.961501 179.100823,107.316412 C178.908601,106.703578 178.508138,106.211699 177.899435,105.840773 C177.290732,105.469847 176.393696,105.284384 175.208327,105.284384 L141.617523,105.381147 L131.333644,73.1589868 C130.981237,72.0623367 130.540728,71.2721035 130.012117,70.7882873 C129.483506,70.3044711 128.882813,70.062563 128.210035,70.062563 C127.569295,70.062563 126.98462,70.3044711 126.456009,70.7882873 C125.927399,71.2721035 125.48689,72.0623367 125.134483,73.1589868 L114.802547,105.381147 L81.2117443,105.284384 C80.058412,105.284384 79.1773943,105.469847 78.5686911,105.840773 C77.9599879,106.211699 77.5595253,106.703578 77.3673033,107.316412 C77.1430442,107.961501 77.1750812,108.606589 77.4634143,109.251677 C77.7517474,109.896765 78.344432,110.557981 79.2414683,111.235324 L106.536999,131.071789 L96.0608976,163.197186 C95.7084905,164.326091 95.6043703,165.229214 95.7485368,165.906557 C95.8927033,166.5839 96.2531197,167.132225 96.8297858,167.551532 C97.374415,167.970839 97.9911274,168.132112 98.679923,168.035348 C99.3687187,167.938585 100.161635,167.567659 101.058671,166.922571 L128.210035,146.892579 L155.409455,166.922571 C156.306492,167.567659 157.099408,167.938585 157.788203,168.035348 C158.476999,168.132112 159.093711,167.970839 159.638341,167.551532 Z" id="􀋃" fill="#FFFFFF" fill-rule="nonzero"></path>
    </g>
</svg>