<?xml version="1.0" standalone="no"?>
<!DOCTYPE svg PUBLIC "-//W3C//DTD SVG 20010904//EN"
 "http://www.w3.org/TR/2001/REC-SVG-20010904/DTD/svg10.dtd">
<svg version="1.0" xmlns="http://www.w3.org/2000/svg"
 width="550.000000pt" height="550.000000pt" viewBox="0 0 550.000000 550.000000"
 preserveAspectRatio="xMidYMid meet">
<metadata>
Created by potrace 1.11, written by Peter Selinger 2001-2013
</metadata>
<g transform="translate(0.000000,550.000000) scale(0.100000,-0.100000)"
fill="#000000" stroke="none">
<path d="M0 2750 l0 -2750 2750 0 2750 0 0 2750 0 2750 -2750 0 -2750 0 0
-2750z m1955 2255 c219 -63 555 -268 753 -458 l42 -41 43 41 c196 189 529 392
752 459 77 23 109 27 215 27 104 0 135 -3 184 -21 246 -91 375 -328 393 -727
8 -171 -17 -418 -63 -626 -6 -25 -2 -28 63 -49 330 -109 592 -257 768 -434 83
-84 108 -116 142 -186 70 -142 79 -260 33 -397 -88 -256 -412 -501 -885 -669
-96 -34 -120 -46 -119 -61 1 -10 11 -74 23 -143 68 -397 50 -709 -55 -930
-218 -461 -753 -414 -1391 124 l-103 87 -102 -87 c-176 -148 -350 -263 -503
-335 -717 -332 -1115 149 -944 1141 12 69 22 133 23 143 1 15 -23 27 -119 61
-473 168 -797 413 -885 669 -46 137 -37 255 33 397 34 70 59 102 142 186 176
177 438 325 768 434 63 20 68 24 63 46 -40 159 -70 462 -63 629 20 435 172
681 462 745 70 16 231 4 330 -25z"/>
<path d="M1633 4846 c-145 -46 -252 -194 -288 -401 -17 -101 -20 -320 -5 -445
10 -78 45 -280 55 -306 2 -8 41 -3 127 17 139 32 437 84 544 94 l72 7 73 97
c102 134 197 248 313 375 l100 109 -44 40 c-225 202 -461 348 -646 402 -98 28
-229 33 -301 11z"/>
<path d="M3562 4835 c-185 -56 -420 -203 -642 -402 l-44 -40 100 -109 c116
-127 211 -241 313 -375 l73 -97 72 -7 c107 -10 405 -62 544 -94 86 -20 125
-25 127 -17 10 26 45 228 55 306 15 125 12 344 -5 445 -32 184 -120 322 -243
382 -50 24 -71 28 -162 30 -88 3 -118 -1 -188 -22z"/>
<path d="M2694 4208 c-94 -97 -304 -350 -304 -366 0 -4 81 -5 180 -2 99 3 261
3 360 0 99 -3 180 -2 180 2 0 24 -340 418 -360 418 -3 0 -28 -24 -56 -52z"/>
<path d="M2357 3650 c-87 -6 -112 -11 -127 -26 -56 -57 -318 -499 -435 -735
l-68 -135 71 -140 c97 -191 236 -431 347 -600 l93 -142 108 -8 c141 -11 667
-11 808 0 l108 8 93 142 c111 169 250 409 347 600 l71 140 -68 135 c-117 235
-379 677 -434 734 -15 15 -43 20 -147 27 -149 11 -609 10 -767 0z m475 -460
c315 -46 483 -383 335 -675 -29 -58 -133 -157 -197 -187 -184 -86 -385 -52
-526 88 -144 142 -175 372 -74 549 63 110 197 203 320 224 74 12 67 12 142 1z"/>
<path d="M2591 2967 c-36 -18 -43 -61 -39 -248 2 -122 7 -170 17 -182 16 -20
130 -24 149 -5 9 9 12 74 12 230 l0 218 -57 0 c-32 0 -69 -6 -82 -13z"/>
<path d="M2883 2968 c-68 -18 -88 -110 -37 -162 61 -60 164 -17 164 68 -1 72
-57 113 -127 94z"/>
<path d="M1855 3596 c-135 -22 -393 -74 -407 -82 -11 -7 106 -360 162 -488
l22 -48 64 121 c53 101 171 302 283 483 12 21 21 38 20 37 -2 0 -67 -11 -144
-23z"/>
<path d="M3522 3580 c109 -175 229 -380 282 -481 l64 -121 22 48 c56 128 173
481 162 488 -14 8 -312 67 -430 85 l-122 18 22 -37z"/>
<path d="M1140 3421 c-296 -107 -467 -204 -610 -345 -207 -205 -206 -434 4
-641 99 -98 189 -158 360 -241 111 -53 348 -144 377 -144 5 0 9 7 9 16 0 30
137 427 193 560 l56 131 -61 144 c-59 141 -188 514 -188 544 0 22 -24 18 -140
-24z"/>
<path d="M4220 3445 c0 -30 -129 -403 -188 -544 l-61 -144 56 -131 c56 -133
193 -530 193 -560 0 -9 4 -16 9 -16 29 0 266 91 377 144 171 83 261 143 360
241 208 206 212 425 10 633 -139 144 -349 262 -645 363 -97 33 -111 35 -111
14z"/>
<path d="M1626 2522 c-19 -31 -134 -348 -169 -469 l-16 -52 87 -20 c104 -24
334 -67 414 -76 l58 -7 -92 148 c-72 117 -189 324 -268 473 -5 9 -10 10 -14 3z"/>
<path d="M3777 2367 c-48 -89 -130 -231 -182 -316 l-95 -153 58 7 c80 9 310
52 414 76 l87 20 -16 52 c-37 128 -156 454 -171 469 -4 4 -46 -66 -95 -155z"/>
<path d="M1396 1822 c-9 -14 -45 -217 -57 -321 -17 -153 -7 -405 21 -500 47
-165 115 -258 228 -313 62 -31 73 -33 172 -33 82 0 121 5 180 23 112 36 226
93 357 182 105 70 314 238 321 258 1 4 -41 54 -94 112 -101 110 -216 248 -323
388 -35 45 -67 82 -70 82 -66 0 -460 66 -602 101 -137 33 -126 31 -133 21z"/>
<path d="M3962 1800 c-114 -29 -341 -69 -507 -89 -83 -11 -92 -14 -115 -43
-160 -203 -275 -342 -359 -433 -55 -60 -100 -113 -98 -117 6 -19 215 -188 320
-258 131 -89 245 -146 357 -182 59 -18 98 -23 180 -23 99 0 110 2 172 33 113
55 181 148 229 313 30 106 38 357 15 534 -24 185 -48 289 -66 291 -8 1 -66
-11 -128 -26z"/>
<path d="M2444 1596 c97 -124 291 -341 306 -341 15 0 209 217 306 341 l61 79
-367 0 -367 0 61 -79z"/>
</g>
</svg>
