<?xml version="1.0" encoding="UTF-8"?>
<svg width="30px" height="29px" viewBox="0 0 30 29" version="1.1" xmlns="http://www.w3.org/2000/svg" xmlns:xlink="http://www.w3.org/1999/xlink">
    <title>ReScript-icon</title>
    <defs>
        <linearGradient x1="50.000052%" y1="3.27777778%" x2="86.0270926%" y2="93.6744452%" id="linearGradient-1">
            <stop stop-color="#E84F4F" offset="0%"></stop>
            <stop stop-color="#DB4646" offset="40.8823%"></stop>
            <stop stop-color="#CB3939" offset="99.8911%"></stop>
        </linearGradient>
    </defs>
    <g id="Page-1" stroke="none" stroke-width="1" fill="none" fill-rule="evenodd">
        <g id="introduction" transform="translate(-25.000000, -95.000000)" fill-rule="nonzero">
            <g id="ReScript-icon" transform="translate(25.000000, 95.000000)">
                <path d="M0,9.29004479 C0,5.41936483 0,3.48510226 1.01946937,2.1276391 C1.34896259,1.68941139 1.74767603,1.30398738 2.2010174,0.985478925 C3.60389398,0 5.60626861,0 9.60983315,0 L20.3896057,0 C24.3937937,0 26.3947187,0 27.7990761,0.985478925 C28.2522304,1.30386683 28.6508254,1.6893059 28.9798962,2.1276391 C30,3.48431869 30,5.41936483 30,9.29004479 L30,19.7100004 C30,23.5806954 30,25.5149128 28.9798962,26.8724513 C28.6509813,27.3106489 28.2523863,27.6959554 27.7990761,28.0140555 C26.3954981,29 24.3937937,29 20.3896057,29 L9.60983315,29 C5.60626861,29 3.60468899,29 2.2010174,28.0140555 C1.7475825,27.6958047 1.34883789,27.3106489 1.01946937,26.8724513 C0,25.5156662 0,23.5806954 0,19.7100004 L0,9.29004479 Z" id="Path" fill="url(#linearGradient-1)"></path>
                <path d="M20.5000766,14 C22.4330073,14 24,12.4329972 24,10.5 C24,8.56700277 22.4330073,7 20.5000766,7 C18.5669927,7 17,8.56700277 17,10.5 C17,12.4329972 18.5669927,14 20.5000766,14 Z" id="Path" fill="#FFFFFF"></path>
                <path d="M8,10.3966589 C8,9.29405506 8,8.74254792 8.21874727,8.32070166 C8.41005273,7.94962531 8.71598714,7.64790916 9.09250161,7.45898126 C9.5202418,7.2447292 10.0802058,7.2447292 11.2003498,7.2447292 L13.7550611,7 L14,7.2447292 L14,20.0460729 C14,20.9635794 13.9323524,21.3761229 13.7800334,21.7375925 C13.6795267,21.9765455 13.5322084,22.1937617 13.34649,22.3766246 C13.1607717,22.5594874 12.9403113,22.7045009 12.6976875,22.8034566 C12.3304026,22.9534863 11.9319254,23 11.0005093,23 C10.0688772,23 9.60276785,23 9.2356836,22.8499704 C8.99304437,22.7510146 8.77258392,22.6060012 8.58686559,22.4231383 C8.4011627,22.2402754 8.25384437,22.0232113 8.15332219,21.7842583 C8.00100322,21.4224847 8.00100322,20.9634274 8.00100322,20.0460729 L8,10.3966589 Z" id="Path" fill-opacity="0.2" fill="#000000"></path>
                <path d="M7,10.2008583 C7,9.08113289 7,8.52107724 7.21874727,8.09266501 C7.41005273,7.71582648 7.71598714,7.40942521 8.09250161,7.21757902 C8.5202418,7 9.08020579,7 10.2003498,7 L13,7 L13,20.0002036 C13,20.9319574 13,21.398143 12.847681,21.7652256 C12.7471588,22.0078891 12.5998405,22.2283239 12.4141376,22.4140263 C12.2284193,22.5997287 12.0079588,22.7471483 11.7653196,22.8476407 C11.3980347,23 10.9319254,23 10.0005093,23 C9.06887717,23 8.60276785,23 8.2356836,22.8476407 C7.99304437,22.7471483 7.77258392,22.5997287 7.58686559,22.4140263 C7.4011627,22.2283239 7.25384437,22.0078891 7.15332219,21.7652256 C7.00100322,21.3979886 7.00100322,20.9316486 7.00100322,20.0002036 L7,10.2008583 Z" id="Path" fill="#FFFFFF"></path>
            </g>
        </g>
    </g>
</svg>
