<?xml version="1.0" encoding="UTF-8"?>
<svg width="118px" height="118px" viewBox="0 0 118 118" version="1.1" xmlns="http://www.w3.org/2000/svg" xmlns:xlink="http://www.w3.org/1999/xlink">
    <path d="M113.911,8.644 C112.610465,6.86791969 111.040946,5.3054863 109.259,4.013 C103.75,0 95.881,0 80.144,0 L37.759,0 C22.023,0 14.155,0 8.644,4.013 C6.86413546,5.30086766 5.30086766,6.86413546 4.013,8.644 C0,14.154 0,22.022 0,37.78 L0,80.144 C0,95.88 0,103.744 4.013,109.259 C5.3054863,111.040946 6.86791969,112.610465 8.644,113.911 C14.154,117.925 22.022,117.925 37.759,117.925 L80.144,117.925 C95.88,117.925 103.744,117.925 109.259,113.911 C111.036687,112.605312 112.605312,111.036687 113.911,109.259 C117.925,103.75 117.925,95.881 117.925,80.144 L117.925,37.78 C117.92,22.022 117.92,14.154 113.911,8.644 Z M54.611,80.209 C54.611,83.897 54.611,85.762 54.011,87.219 C53.2061176,89.1599188 51.6639188,90.7021176 49.723,91.507 C48.265,92.107 46.423,92.107 42.712,92.107 C39.024,92.107 37.159,92.107 35.702,91.507 C33.7610812,90.7021176 32.2188824,89.1599188 31.414,87.219 C30.814,85.762 30.814,83.897 30.814,80.209 L30.814,41.318 C30.814,36.858 30.814,34.629 31.672,32.936 C32.4366963,31.4424369 33.6516571,30.2271263 35.145,29.462 C36.835,28.605 39.069,28.605 43.507,28.605 L54.613,28.605 L54.611,80.209 Z M79.911,57.072 C72.1790135,57.072 65.911,50.8039865 65.911,43.072 C65.911,35.3400135 72.1790135,29.072 79.911,29.072 C87.6429865,29.072 93.911,35.3400135 93.911,43.072 L93.911,43.072 C93.9136531,46.7825521 92.4421175,50.342169 89.8201424,52.9677072 C87.1981674,55.5932455 83.6405523,57.0696139 79.93,57.072 L79.911,57.072 Z"></path>
</svg>
